# xmcd CD database file
#
# Track frame offsets:
#	150
#	18260
#	37502
#	48850
#	74397
#	88575
#	118940
#	135127
#	166865
#	180117
#	197335
#	213607
#	230945
#	242927
#	263650
#	278195
#
# Disc length: 3949 seconds
#
# Revision: 5
# Processed by: cddbd v1.5.2PL0 Copyright (c) Steve Scherf et al.
# Submitted via: CDex 1.70beta2
#
DISCID=cf0f6b10
DTITLE=Jewel - pieces of you - AMCY-2360
DYEAR=1997
DGENRE=Classical
TTITLE0=Who Will Save Your Soul
TTITLE1=Pieces of You
TTITLE2=Little Sister
TTITLE3=Foolish Games
TTITLE4=Near You Always
TTITLE5=Painters
TTITLE6=Morning Song
TTITLE7=Adrian
TTITLE8=I'm Sensitive
TTITLE9=You Were Meant For Me
TTITLE10=Don't
TTITLE11=Daddy
TTITLE12=Angel Standing By
TTITLE13=Amen
TTITLE14=Emily - from the movie ‘The Crossing Guard’
TTITLE15=Foolish Games [Radio Edit]
EXTD=YEAR: 1997
EXTT0=
EXTT1=
EXTT2=
EXTT3=
EXTT4=
EXTT5=
EXTT6=
EXTT7=
EXTT8=
EXTT9=
EXTT10=
EXTT11=
EXTT12=
EXTT13=
EXTT14=From the movie The Crossing Guard\n
EXTT15=
PLAYORDER=
